<?xml version="1.0" encoding="UTF-8" standalone="no"?> <!-- Created with Vectornator for iOS (http://vectornator.io/) --><!DOCTYPE svg PUBLIC "-//W3C//DTD SVG 1.1//EN" "http://www.w3.org/Graphics/SVG/1.1/DTD/svg11.dtd">
<svg height="100%" style="fill-rule:nonzero;clip-rule:evenodd;stroke-linecap:round;stroke-linejoin:round;" xmlns:xlink="http://www.w3.org/1999/xlink" xmlns="http://www.w3.org/2000/svg" xml:space="preserve" width="100%" xmlns:vectornator="http://vectornator.io" version="1.1" viewBox="0 0 30 24">
<metadata>
<vectornator:setting key="DimensionsVisible" value="1"/>
<vectornator:setting key="PencilOnly" value="0"/>
<vectornator:setting key="SnapToPoints" value="0"/>
<vectornator:setting key="OutlineMode" value="0"/>
<vectornator:setting key="CMYKEnabledKey" value="0"/>
<vectornator:setting key="RulersVisible" value="1"/>
<vectornator:setting key="SnapToEdges" value="0"/>
<vectornator:setting key="GuidesVisible" value="1"/>
<vectornator:setting key="DisplayWhiteBackground" value="0"/>
<vectornator:setting key="doHistoryDisabled" value="0"/>
<vectornator:setting key="SnapToGuides" value="1"/>
<vectornator:setting key="TimeLapseWatermarkDisabled" value="0"/>
<vectornator:setting key="Units" value="Points"/>
<vectornator:setting key="DynamicGuides" value="0"/>
<vectornator:setting key="IsolateActiveLayer" value="0"/>
<vectornator:setting key="SnapToGrid" value="0"/>
</metadata>
<defs/>
<g id="icon_hamburguer" vectornator:layerName="icon_hamburguer">
<path d="M1.5+0L28.5+0C29.3284-4.47035e-08+30+0.671573+30+1.5L30+1.5C30+2.32843+29.3284+3+28.5+3L1.5+3C0.671573+3+9.15614e-08+2.32843-3.35276e-08+1.5L-3.35276e-08+1.5C-2.40281e-07+0.671573+0.671573-3.78186e-08+1.5+0Z" opacity="1" fill="#ffffff"/>
<path d="M1.5+10.451L28.5+10.451C29.3284+10.451+30+11.1226+30+11.951L30+11.951C30+12.7794+29.3284+13.451+28.5+13.451L1.5+13.451C0.671573+13.451+9.15614e-08+12.7794-3.35276e-08+11.951L-3.35276e-08+11.951C-2.40281e-07+11.1226+0.671573+10.451+1.5+10.451Z" opacity="1" fill="#ffffff"/>
<path d="M1.5+21L20.5+21C21.3284+21+22+21.6716+22+22.5L22+22.5C22+23.3284+21.3284+24+20.5+24L1.5+24C0.671573+24+9.15614e-08+23.3284-3.35276e-08+22.5L-3.35276e-08+22.5C-2.40281e-07+21.6716+0.671573+21+1.5+21Z" opacity="1" fill="#ffffff"/>
</g>
</svg>
