<?xml version="1.0" encoding="UTF-8" standalone="no"?> <!-- Created with Vectornator for iOS (http://vectornator.io/) --><!DOCTYPE svg PUBLIC "-//W3C//DTD SVG 1.1//EN" "http://www.w3.org/Graphics/SVG/1.1/DTD/svg11.dtd">
<svg height="100%" style="fill-rule:nonzero;clip-rule:evenodd;stroke-linecap:round;stroke-linejoin:round;" xmlns:xlink="http://www.w3.org/1999/xlink" xmlns="http://www.w3.org/2000/svg" xml:space="preserve" width="100%" xmlns:vectornator="http://vectornator.io" version="1.1" viewBox="0 0 25.719 25.719">
<metadata>
<vectornator:setting key="DimensionsVisible" value="1"/>
<vectornator:setting key="PencilOnly" value="0"/>
<vectornator:setting key="SnapToPoints" value="0"/>
<vectornator:setting key="OutlineMode" value="0"/>
<vectornator:setting key="CMYKEnabledKey" value="0"/>
<vectornator:setting key="RulersVisible" value="1"/>
<vectornator:setting key="SnapToEdges" value="0"/>
<vectornator:setting key="GuidesVisible" value="1"/>
<vectornator:setting key="DisplayWhiteBackground" value="0"/>
<vectornator:setting key="doHistoryDisabled" value="0"/>
<vectornator:setting key="SnapToGuides" value="1"/>
<vectornator:setting key="TimeLapseWatermarkDisabled" value="0"/>
<vectornator:setting key="Units" value="Points"/>
<vectornator:setting key="DynamicGuides" value="0"/>
<vectornator:setting key="IsolateActiveLayer" value="0"/>
<vectornator:setting key="SnapToGrid" value="0"/>
</metadata>
<defs/>
<g id="Untitled" vectornator:layerName="Untitled">
<path d="M15.719+0C11.8587-0.00198379+8.3424+2.21919+6.68589+5.70598C5.02938+9.19277+5.52886+13.3218+7.969+16.313L0+24.281L1.438+25.719L9.407+17.75C12.8184+20.5318+17.6476+20.7557+21.3018+18.3016C24.956+15.8475+26.5758+11.2925+25.2915+7.08228C24.0072+2.87201+20.1208-0.00334843+15.719+0ZM15.719+2C20.1373+2+23.719+5.58172+23.719+10C23.719+14.4183+20.1373+18+15.719+18C11.3007+18+7.719+14.4183+7.719+10C7.71501+7.87705+8.55658+5.8399+10.0577+4.33874C11.5589+2.83758+13.596+1.99601+15.719+2Z" opacity="1" fill="#ffffff"/>
</g>
</svg>
